<?xml version="1.0" encoding="UTF-8"?> <svg xmlns="http://www.w3.org/2000/svg" width="109" height="36" viewBox="0 0 109 36" fill="none"><g clip-path="url(#clip0)"><path d="M41.8638 0.128693H48.1658V0.77176H45.4006V8.07058H44.6611V0.77176H41.8959V0.128693H41.8638Z" fill="#003764"></path><path d="M48.9054 0.128693H49.6449V3.56911H54.3715V0.128693H55.111V8.07058H54.3715V4.21217H49.6449V8.07058H48.9054V0.128693Z" fill="#003764"></path><path d="M56.7507 0.128693H62.2168V0.77176H57.4903V3.63341H61.9274V4.27648H57.4903V7.39536H62.2811V8.03843H56.7507V0.128693Z" fill="#003764"></path><path d="M41.8638 27.7485H46.9118V28.3916H42.6355V31.2532H46.4295V31.8963H42.6355V35.6904H41.8959V27.7485H41.8638Z" fill="#003764"></path><path d="M51.1561 27.5877C53.6319 27.5877 54.8859 29.5491 54.8859 31.7355C54.8859 33.922 53.6319 35.8833 51.1561 35.8833C48.6481 35.8833 47.4263 33.922 47.4263 31.7355C47.4263 29.5491 48.6803 27.5877 51.1561 27.5877ZM51.1561 35.2081C53.246 35.2081 54.1463 33.4397 54.1463 31.7034C54.1463 29.9671 53.246 28.1987 51.1561 28.1987C49.0661 28.1987 48.1658 29.9671 48.1658 31.7034C48.1658 33.4718 49.0661 35.2081 51.1561 35.2081Z" fill="#003764"></path><path d="M56.0112 27.7485H56.7508V32.668C56.7508 34.5007 57.6189 35.2081 59.0658 35.2081C60.5449 35.2081 61.413 34.5007 61.413 32.668V27.7485H62.1847V32.8287C62.1847 34.4686 61.3165 35.8512 59.098 35.8512C56.9115 35.8512 56.0112 34.4686 56.0112 32.8287V27.7485Z" fill="#003764"></path><path d="M63.6959 27.7485H64.5319L69.162 34.4686H69.1941V27.7485H69.9658V35.6904H69.1298L64.4998 28.9703H64.4676V35.6904H63.6959V27.7485Z" fill="#003764"></path><path d="M71.5093 27.7485H74.2423C76.6538 27.8128 77.8756 29.0989 77.8756 31.7034C77.8756 34.3399 76.6217 35.6261 74.2423 35.6582H71.5093V27.7485ZM72.281 35.0473H73.8886C76.1715 35.0473 77.1683 34.1149 77.1683 31.7355C77.1683 29.3562 76.1715 28.4237 73.8886 28.4237H72.281V35.0473Z" fill="#003764"></path><path d="M81.4447 27.7485H82.2807L85.3995 35.6904H84.5957L83.6311 33.2146H80.0299L79.0653 35.6904H78.2615L81.4447 27.7485ZM80.255 32.5715H83.3739L81.8305 28.5202L80.255 32.5715Z" fill="#003764"></path><path d="M84.5314 27.7485H90.8334V28.3916H88.0682V35.6904H87.2966V28.3916H84.5314V27.7485Z" fill="#003764"></path><path d="M91.6051 27.7485H92.3768V35.6904H91.6051V27.7485Z" fill="#003764"></path><path d="M97.3284 27.5877C99.8042 27.5877 101.058 29.5491 101.058 31.7355C101.058 33.922 99.8042 35.8833 97.3284 35.8833C94.8205 35.8833 93.5986 33.922 93.5986 31.7355C93.5986 29.5491 94.8526 27.5877 97.3284 27.5877ZM97.3284 35.2081C99.4184 35.2081 100.319 33.4397 100.319 31.7034C100.319 29.9671 99.4184 28.1987 97.3284 28.1987C95.2385 28.1987 94.3382 29.9671 94.3382 31.7034C94.3703 33.4718 95.2385 35.2081 97.3284 35.2081Z" fill="#003764"></path><path d="M102.248 27.7485H103.084L107.714 34.4686H107.746V27.7485H108.518V35.6904H107.682L103.052 28.9703H103.019V35.6904H102.248V27.7485Z" fill="#003764"></path><path d="M41.8638 10.4178H46.2366V20.9641H52.5065V24.5974H41.8638V10.4178Z" fill="#003764"></path><path d="M55.4004 10.4178H59.7733V24.5974H55.4004V10.4178Z" fill="#003764"></path><path d="M63.0206 10.4178H67.49L71.6377 18.006H71.6699V10.4178H75.8177V24.5974H71.5734L67.2006 16.8806H67.1684V24.6296H63.0206V10.4178Z" fill="#003764"></path><path d="M91.9909 19.1313C91.9909 23.0862 89.9009 24.9511 85.5281 24.9511C81.1552 24.9511 79.0331 23.0862 79.0331 19.1313V10.4178H83.4059V18.1667C83.4059 19.6136 83.3738 21.4142 85.5281 21.4142C87.5859 21.4142 87.5859 19.5815 87.5859 18.1667V10.4178H91.9587V19.1313H91.9909Z" fill="#003764"></path><path d="M98.936 17.0735L94.2738 10.4178H99.4183L101.573 14.2762L103.695 10.4178H108.55L103.984 17.1057L109 24.6296H103.727L101.315 20.3853L98.8074 24.6296H93.7915L98.936 17.0735Z" fill="#003764"></path><path d="M7.13805 28.5523V14.2762H0V35.6903H21.4142V28.5523H7.13805Z" fill="#009ADE"></path><path d="M35.6903 0H0V10.7071H7.13806V7.17021H28.5522V28.5522H24.9832V35.6903H35.6903V0Z" fill="#003764"></path></g><defs><clipPath id="clip0"><rect width="109" height="35.851" fill="white"></rect></clipPath></defs></svg> 